#!OML:ASF E:\emotionWalksFemale\Project 1\Capture day 1\Session 1\Female1.ASF
:FULLY-SPECIFIED
:DEGREES
574
root 9.69672 15.5166 -19.8084 -180.957 -8.75508 -178.131
lowerback 4.13969 -0.82384 -0.682514
upperback -4.82788 -1.26211 0.623375
thorax -7.33776 -0.62612 1.17453
lowerneck -6.59834 -4.96168 -8.68179
upperneck 15.3203 -7.85161 9.33684
head 6.42575 -3.89767 3.77011
rclavicle 1.79403e-014 9.93923e-016
rhumerus -44.8125 -3.28537 -78.4995
rradius 29.6739
rwrist 22.6198
rhand -0.411824 -54.0526
rfingers 7.12502
rthumb 25.1959 -82.4094
lclavicle 1.79403e-014 9.93923e-016
lhumerus -41.6936 1.14814 87.3465
lradius 36.1805
lwrist -17.4373
lhand -1.67984 -34.3337
lfingers 7.12502
lthumb 23.9804 -5.81149
rfemur -13.9896 20.9678 24.8812
rtibia 17.2974
rfoot -6.52632 -34.5754
rtoes 26.0565
lfemur 8.08534 -2.63616 -19.1711
ltibia 40.4126
lfoot 4.35186 -1.42809
ltoes -15.0543
575
root 9.72239 15.5262 -19.9334 -180.961 -8.88932 -177.728
lowerback 4.28702 -0.840504 -0.408045
upperback -4.86046 -1.26165 0.671978
thorax -7.4628 -0.638624 1.07545
lowerneck -6.07109 -4.87173 -9.03429
upperneck 14.5543 -7.75595 10.0366
head 6.12287 -3.83701 4.07608
rclavicle -9.93923e-017 -7.55382e-015
rhumerus -44.5214 -2.56166 -79.0376
rradius 30.0694
rwrist 21.6929
rhand -0.289009 -54.1903
rfingers 7.12502
rthumb 25.3135 -82.5305
lclavicle -9.93923e-017 -7.55382e-015
lhumerus -41.7744 1.06526 87.1428
lradius 35.9755
lwrist -17.4293
lhand -1.39487 -34.2068
lfingers 7.12502
lthumb 24.2537 -5.72081
rfemur -13.1958 20.2752 25.7468
rtibia 16.6404
rfoot -6.41862 -34.024
rtoes 26.639
lfemur 6.62561 -2.24572 -18.1785
ltibia 43.0261
lfoot 6.46356 -1.65109
ltoes -11.1547
576
root 9.74987 15.5327 -20.0643 -181.121 -9.0454 -177.354
lowerback 4.47655 -0.8338 -0.182283
upperback -4.82939 -1.2287 0.697153
thorax -7.54446 -0.631594 0.97519
lowerneck -6.21445 -5.0293 -9.098
upperneck 14.4497 -7.95971 10.1865
head 6.14486 -3.92148 4.11328
rclavicle -1.2424e-015 1.78906e-015
rhumerus -44.2452 -1.87838 -79.5663
rradius 30.5171
rwrist 20.8312
rhand -0.062755 -54.5428
rfingers 7.12502
rthumb 25.5303 -82.8522
lclavicle -1.2424e-015 1.78906e-015
lhumerus -41.9497 0.664123 87.0961
lradius 35.976
lwrist -17.1556
lhand -1.01393 -33.8643
lfingers 7.12502
lthumb 24.6189 -5.42756
rfemur -12.1629 19.82 26.6225
rtibia 15.9081
rfoot -6.5757 -33.8251
rtoes 27.3347
lfemur 5.30785 -1.96004 -17.2892
ltibia 45.6469
lfoot 8.60583 -1.677
ltoes -7.10425
577
root 9.7726 15.5416 -20.1976 -181.303 -9.215 -177.104
lowerback 4.65486 -0.837718 -0.0449667
upperback -4.79862 -1.21822 0.692072
thorax -7.61843 -0.63175 0.894859
lowerneck -6.11635 -5.12034 -9.27646
upperneck 14.1658 -8.09968 10.5492
head 6.07505 -3.97827 4.24954
rclavicle 9.7653e-015 -4.57205e-015
rhumerus -44.0194 -1.22659 -79.987
rradius 30.9078
rwrist 20.4427
rhand 0.354408 -54.8044
rfingers 7.12502
rthumb 25.9298 -83.0559
lclavicle 9.7653e-015 -4.57205e-015
lhumerus -41.9992 0.306897 87.0574
lradius 35.7661
lwrist -16.9083
lhand -0.894998 -33.7888
lfingers 7.12502
lthumb 24.7328 -5.36768
rfemur -10.9737 19.2759 27.3597
rtibia 14.9951
rfoot -6.60977 -33.6354
rtoes 28.3434
lfemur 4.0339 -1.79818 -16.6615
ltibia 48.2359
lfoot 10.3763 -2.0224
ltoes -8.08292
578
root 9.79447 15.5544 -20.321 -181.402 -9.43342 -176.716
lowerback 4.81577 -0.869906 0.232497
upperback -4.78324 -1.23168 0.749782
thorax -7.70009 -0.650584 0.804563
lowerneck -6.10197 -5.17778 -9.34715
upperneck 13.8989 -8.18283 10.8295
head 6.01238 -4.00371 4.34442
rclavicle 1.59028e-015 1.59028e-015
rhumerus -43.8017 -0.60278 -80.3379
rradius 31.3659
rwrist 19.9997
rhand 0.501033 -54.7923
rfingers 7.12502
rthumb 26.0702 -83.0232
lclavicle 1.59028e-015 1.59028e-015
lhumerus -41.7981 0.236272 86.9081
lradius 35.303
lwrist -17.0501
lhand -1.15707 -34.1376
lfingers 7.12502
lthumb 24.4816 -5.68224
rfemur -9.87843 18.7145 28.1704
rtibia 13.9068
rfoot -6.51341 -33.5155
rtoes 29.2651
lfemur 2.53026 -1.66647 -15.8932
ltibia 50.7954
lfoot 12.1794 -2.39026
ltoes -10.3437
